<?xml version="1.0" standalone="no"?><!DOCTYPE svg PUBLIC "-//W3C//DTD SVG 1.1//EN" "http://www.w3.org/Graphics/SVG/1.1/DTD/svg11.dtd"><svg t="1775151697135" class="icon" viewBox="0 0 1024 1024" version="1.1" xmlns="http://www.w3.org/2000/svg" p-id="13735" xmlns:xlink="http://www.w3.org/1999/xlink" width="200" height="200"><path d="M560.126 79.431l345.803 247.386c33.936 24.276 54.06 63.358 54.071 104.993v398.933C960 902.128 901.936 960 830.316 960H193.684C122.063 960 64 902.128 64 830.743V431.821c0-41.64 20.13-80.724 54.065-105.004l345.81-247.386c28.759-20.575 67.486-20.575 96.251 0z" fill="#92C8FF" p-id="13736"></path><path d="M352 672H192c-17.6 0-32 14.4-32 32v160c0 17.6 14.4 32 32 32h160c17.6 0 32-14.4 32-32V704c0-17.6-14.4-32-32-32zM352 384H192c-17.6 0-32 14.4-32 32v160c0 17.6 14.4 32 32 32h160c17.6 0 32-14.4 32-32V416c0-17.6-14.4-32-32-32zM641 672H480c-17.6 0-32 14.4-32 32v160c0 17.6 14.4 32 32 32h161c17.6 0 32-14.4 32-32V704c0-17.6-14.4-32-32-32z" fill="#409EFF" p-id="13737"></path><path d="M336 447H208c-8.8 0-16-7.2-16-16s7.2-16 16-16h128c8.8 0 16 7.2 16 16s-7.2 16-16 16zM336 736H208c-8.8 0-16-7.2-16-16s7.2-16 16-16h128c8.8 0 16 7.2 16 16s-7.2 16-16 16zM624 736H496c-8.8 0-16-7.2-16-16s7.2-16 16-16h128c8.8 0 16 7.2 16 16s-7.2 16-16 16z" fill="#92C8FF" p-id="13738"></path></svg>