<?xml version="1.0" standalone="no"?><!DOCTYPE svg PUBLIC "-//W3C//DTD SVG 1.1//EN" "http://www.w3.org/Graphics/SVG/1.1/DTD/svg11.dtd"><svg t="1775151622263" class="icon" viewBox="0 0 1024 1024" version="1.1" xmlns="http://www.w3.org/2000/svg" p-id="12613" xmlns:xlink="http://www.w3.org/1999/xlink" width="200" height="200"><path d="M716.8 0H307.2C137.5488 0 0 137.5488 0 307.2v409.6c0 169.6512 137.5488 307.2 307.2 307.2h409.6c169.6512 0 307.2-137.5488 307.2-307.2V307.2c0-169.6512-137.5488-307.2-307.2-307.2z" fill="#FFEFCF" p-id="12614"></path><path d="M326.144 271.5136a25.6 25.6 0 0 1 23.552-15.5136H460.8a25.6 25.6 0 0 1 25.6 25.6v128a25.6 25.6 0 0 1-25.6 25.6h-165.9648a25.6 25.6 0 0 1-23.552-35.6864l54.8608-128zM537.6 281.6a25.6 25.6 0 0 1 25.6-25.6h111.104a25.6 25.6 0 0 1 23.552 15.5136l54.8608 128a25.6 25.6 0 0 1-23.552 35.6864H563.2a25.6 25.6 0 0 1-25.6-25.6v-128z" fill="#FEBF60" p-id="12615"></path><path d="M307.2 460.8h409.6a51.2 51.2 0 0 1 51.2 51.2v204.8a51.2 51.2 0 0 1-51.2 51.2H307.2a51.2 51.2 0 0 1-51.2-51.2v-204.8a51.2 51.2 0 0 1 51.2-51.2z m249.2416 178.9952a80.896 80.896 0 1 0-19.072 19.072l46.848 46.8224a13.4912 13.4912 0 1 0 19.0464-19.072l-46.8224-46.848z m-12.032-46.8992a53.9392 53.9392 0 1 1-107.8528 0 53.9392 53.9392 0 0 1 107.8784 0z" fill="#FA8A0C" p-id="12616"></path><path d="M460.8 576a12.8 12.8 0 0 1 25.6 0 12.8 12.8 0 0 1-25.6 0z" fill="#FFFFFF" p-id="12617"></path></svg>